<svg xmlns="http://www.w3.org/2000/svg" viewBox="0 0 64 64" width="64" height="64">
  <defs>
    <linearGradient id="gb" x1="0" y1="0" x2="1" y2="1">
      <stop offset="0" stop-color="#27AE7A"/>
      <stop offset="1" stop-color="#1E88C7"/>
    </linearGradient>
  </defs>
  <rect width="64" height="64" rx="15" fill="#FFFFFF"/>
  <g fill="#E3F2EC">
    <rect x="28" y="12" width="8" height="40" rx="4"/>
    <rect x="12" y="28" width="40" height="8" rx="4"/>
  </g>
  <g fill="url(#gb)">
    <circle cx="32" cy="22" r="5.5"/>
    <path d="M32 29c-6.5 0-12 4-13.5 10.5-.5 2 1.2 3.3 3 2.5 2.5-1.2 5.5-2 6.5-2v6c0 2 1.5 3.5 4 3.5s4-1.5 4-3.5v-6c1 0 4 .8 6.5 2 1.8.8 3.5-.5 3-2.5C44 33 38.5 29 32 29z"/>
  </g>
</svg>
